<mxfile host="65bd71144e">
    <diagram id="YcI1qLk74HQtE8B9h9Ni" name="Page-1">
        <mxGraphModel dx="922" dy="802" grid="0" gridSize="10" guides="1" tooltips="1" connect="1" arrows="1" fold="1" page="1" pageScale="1" pageWidth="850" pageHeight="1100" math="0" shadow="0">
            <root>
                <mxCell id="0"/>
                <mxCell id="1" parent="0"/>
                <mxCell id="14" value="" style="edgeStyle=none;html=1;" parent="1" source="12" edge="1">
                    <mxGeometry relative="1" as="geometry">
                        <mxPoint x="210" y="345" as="targetPoint"/>
                    </mxGeometry>
                </mxCell>
                <mxCell id="12" value="FirebaseReady := False&lt;br&gt;ThingspeakReady := False" style="rounded=0;whiteSpace=wrap;html=1;" parent="1" vertex="1">
                    <mxGeometry x="118.13" y="193" width="182" height="40" as="geometry"/>
                </mxCell>
                <mxCell id="24" value="False" style="text;html=1;strokeColor=none;fillColor=none;align=center;verticalAlign=middle;whiteSpace=wrap;rounded=0;" parent="1" vertex="1">
                    <mxGeometry x="591" y="451" width="60" height="30" as="geometry"/>
                </mxCell>
                <mxCell id="31" value="" style="edgeStyle=none;html=1;" parent="1" source="27" target="28" edge="1">
                    <mxGeometry relative="1" as="geometry"/>
                </mxCell>
                <mxCell id="27" value="bắt đầu" style="ellipse;whiteSpace=wrap;html=1;" parent="1" vertex="1">
                    <mxGeometry x="593.25" y="83" width="80" height="50" as="geometry"/>
                </mxCell>
                <mxCell id="30" style="edgeStyle=none;html=1;entryX=0.5;entryY=0;entryDx=0;entryDy=0;" parent="1" source="28" target="12" edge="1">
                    <mxGeometry relative="1" as="geometry"/>
                </mxCell>
                <mxCell id="28" value="Thiết lập chân I/O:&lt;br&gt;DEV0 := GPIO12 -&amp;gt; OUTPUT&lt;br&gt;DEV1 := GPIO13 -&amp;gt; OUTPUT&lt;br&gt;Indicator := GPIO19 -&amp;gt; OUTPUT&lt;br&gt;DHT_PIN := GPIO5 -&amp;gt; INPUT" style="shape=process;whiteSpace=wrap;html=1;backgroundOutline=1;" parent="1" vertex="1">
                    <mxGeometry x="80.13" y="63" width="260" height="90" as="geometry"/>
                </mxCell>
                <mxCell id="43" value="" style="edgeStyle=none;html=1;" parent="1" source="34" target="42" edge="1">
                    <mxGeometry relative="1" as="geometry"/>
                </mxCell>
                <mxCell id="34" value="Đọc dữ liệu từ DHT11:&lt;br&gt;(dev0_state,&amp;nbsp;dev1_state) := return_value&amp;nbsp;" style="shape=process;whiteSpace=wrap;html=1;backgroundOutline=1;" parent="1" vertex="1">
                    <mxGeometry x="51.00000000000001" y="768" width="316.25" height="50" as="geometry"/>
                </mxCell>
                <mxCell id="37" value="" style="edgeStyle=none;html=1;" parent="1" source="35" target="36" edge="1">
                    <mxGeometry relative="1" as="geometry"/>
                </mxCell>
                <mxCell id="35" value="Humid := 0.0&lt;br&gt;Temp := 0.0&lt;br&gt;dev0_state := 0&lt;br&gt;dev1_state := 1&lt;br&gt;DataCorrupted := False" style="rounded=0;whiteSpace=wrap;html=1;" parent="1" vertex="1">
                    <mxGeometry x="140" y="511" width="140" height="80" as="geometry"/>
                </mxCell>
                <mxCell id="38" value="" style="edgeStyle=none;html=1;" parent="1" source="36" target="34" edge="1">
                    <mxGeometry relative="1" as="geometry"/>
                </mxCell>
                <mxCell id="115" value="" style="edgeStyle=none;html=1;" parent="1" source="36" target="114" edge="1">
                    <mxGeometry relative="1" as="geometry"/>
                </mxCell>
                <mxCell id="36" value="True" style="rhombus;whiteSpace=wrap;html=1;" parent="1" vertex="1">
                    <mxGeometry x="168.63" y="646" width="83" height="80" as="geometry"/>
                </mxCell>
                <mxCell id="47" value="" style="edgeStyle=none;html=1;" parent="1" source="42" target="46" edge="1">
                    <mxGeometry relative="1" as="geometry"/>
                </mxCell>
                <mxCell id="113" style="edgeStyle=none;html=1;" parent="1" source="42" edge="1">
                    <mxGeometry relative="1" as="geometry">
                        <mxPoint x="208" y="745" as="targetPoint"/>
                        <Array as="points">
                            <mxPoint x="13" y="887"/>
                            <mxPoint x="13" y="746"/>
                        </Array>
                    </mxGeometry>
                </mxCell>
                <mxCell id="42" value="DataCorrupted&amp;nbsp;" style="rhombus;whiteSpace=wrap;html=1;" parent="1" vertex="1">
                    <mxGeometry x="162.38" y="842" width="93.5" height="90" as="geometry"/>
                </mxCell>
                <mxCell id="45" value="True" style="text;html=1;strokeColor=none;fillColor=none;align=center;verticalAlign=middle;whiteSpace=wrap;rounded=0;" parent="1" vertex="1">
                    <mxGeometry x="212" y="729" width="33" height="30" as="geometry"/>
                </mxCell>
                <mxCell id="54" value="" style="edgeStyle=none;html=1;" parent="1" source="46" target="53" edge="1">
                    <mxGeometry relative="1" as="geometry"/>
                </mxCell>
                <mxCell id="46" value="Thiết lập ngõ ra GPIO:&lt;br&gt;DEV0 := bool(dev0_state == &quot;ON&quot;)&lt;br&gt;DEV1 := bool(dev1_state == &quot;ON&quot;)" style="shape=process;whiteSpace=wrap;html=1;backgroundOutline=1;" parent="1" vertex="1">
                    <mxGeometry x="87.31" y="955" width="242.82" height="60" as="geometry"/>
                </mxCell>
                <mxCell id="52" value="" style="edgeStyle=none;html=1;exitX=0.5;exitY=0;exitDx=0;exitDy=0;" parent="1" source="55" edge="1">
                    <mxGeometry relative="1" as="geometry">
                        <mxPoint x="678" y="947" as="sourcePoint"/>
                        <mxPoint x="678.255" y="893" as="targetPoint"/>
                    </mxGeometry>
                </mxCell>
                <mxCell id="60" value="" style="edgeStyle=none;html=1;" parent="1" source="53" target="55" edge="1">
                    <mxGeometry relative="1" as="geometry"/>
                </mxCell>
                <mxCell id="53" value="FbDataSent := False&lt;br&gt;TsDataSent := False" style="rounded=0;whiteSpace=wrap;html=1;" parent="1" vertex="1">
                    <mxGeometry x="355" y="955" width="140" height="60" as="geometry"/>
                </mxCell>
                <mxCell id="55" value="Gởi dữ liệu lên Thingspeak:&lt;br&gt;param := (Temp, Humid)&lt;br&gt;TsDataSent := return_value" style="shape=process;whiteSpace=wrap;html=1;backgroundOutline=1;" parent="1" vertex="1">
                    <mxGeometry x="520.13" y="955" width="316.25" height="60" as="geometry"/>
                </mxCell>
                <mxCell id="64" value="" style="edgeStyle=none;html=1;" parent="1" source="56" target="63" edge="1">
                    <mxGeometry relative="1" as="geometry"/>
                </mxCell>
                <mxCell id="56" value="Gởi dữ liệu lên Firebase:&lt;br&gt;param := (Temp, Humid)&lt;br&gt;FbDataSent := return_value" style="shape=process;whiteSpace=wrap;html=1;backgroundOutline=1;" parent="1" vertex="1">
                    <mxGeometry x="520.13" y="833" width="316.25" height="60" as="geometry"/>
                </mxCell>
                <mxCell id="68" value="" style="edgeStyle=none;html=1;" parent="1" source="63" target="67" edge="1">
                    <mxGeometry relative="1" as="geometry"/>
                </mxCell>
                <mxCell id="80" style="edgeStyle=none;html=1;" parent="1" source="63" edge="1">
                    <mxGeometry relative="1" as="geometry">
                        <mxPoint x="281" y="620" as="targetPoint"/>
                        <Array as="points">
                            <mxPoint x="281" y="728"/>
                        </Array>
                    </mxGeometry>
                </mxCell>
                <mxCell id="63" value="TsDataSent&lt;br&gt;&amp;amp;&lt;br&gt;FbDataSent" style="rhombus;whiteSpace=wrap;html=1;" parent="1" vertex="1">
                    <mxGeometry x="623.25" y="673" width="110" height="110" as="geometry"/>
                </mxCell>
                <mxCell id="73" style="edgeStyle=none;html=1;startArrow=none;" parent="1" source="77" edge="1">
                    <mxGeometry relative="1" as="geometry">
                        <mxPoint x="212" y="621" as="targetPoint"/>
                    </mxGeometry>
                </mxCell>
                <mxCell id="79" value="" style="edgeStyle=none;html=1;" parent="1" source="67" target="77" edge="1">
                    <mxGeometry relative="1" as="geometry"/>
                </mxCell>
                <mxCell id="67" value="Set_Indicator:&lt;br&gt;param := 0x3" style="shape=process;whiteSpace=wrap;html=1;backgroundOutline=1;" parent="1" vertex="1">
                    <mxGeometry x="618.25" y="600" width="120" height="40" as="geometry"/>
                </mxCell>
                <mxCell id="74" value="False" style="text;html=1;strokeColor=none;fillColor=none;align=center;verticalAlign=middle;whiteSpace=wrap;rounded=0;" parent="1" vertex="1">
                    <mxGeometry x="556" y="702" width="60" height="30" as="geometry"/>
                </mxCell>
                <mxCell id="76" value="Thiết lập Serial:&lt;br&gt;baud_rate = 115200" style="shape=process;whiteSpace=wrap;html=1;backgroundOutline=1;" parent="1" vertex="1">
                    <mxGeometry x="370.13" y="78" width="200" height="60" as="geometry"/>
                </mxCell>
                <mxCell id="77" value="In thông báo qua Serial:&lt;br&gt;param := &quot;Update data failed!&quot;" style="shape=process;whiteSpace=wrap;html=1;backgroundOutline=1;" parent="1" vertex="1">
                    <mxGeometry x="352.25" y="602.5" width="209.13" height="37.5" as="geometry"/>
                </mxCell>
                <mxCell id="108" style="edgeStyle=none;html=1;exitX=0.5;exitY=0;exitDx=0;exitDy=0;" parent="1" source="92" edge="1">
                    <mxGeometry relative="1" as="geometry">
                        <mxPoint x="556" y="376" as="targetPoint"/>
                        <Array as="points">
                            <mxPoint x="456" y="428"/>
                            <mxPoint x="556" y="426"/>
                        </Array>
                    </mxGeometry>
                </mxCell>
                <mxCell id="109" style="edgeStyle=none;html=1;entryX=1;entryY=0.5;entryDx=0;entryDy=0;exitX=0.5;exitY=1;exitDx=0;exitDy=0;" parent="1" target="35" edge="1">
                    <mxGeometry relative="1" as="geometry">
                        <mxPoint x="227.21333333333337" y="500.25" as="targetPoint"/>
                        <mxPoint x="717.8800000000002" y="498" as="sourcePoint"/>
                        <Array as="points">
                            <mxPoint x="717.88" y="551"/>
                        </Array>
                    </mxGeometry>
                </mxCell>
                <mxCell id="92" value="In thông báo qua Serial:&lt;br&gt;param := &quot;Firebase: Ready: False&quot;" style="shape=process;whiteSpace=wrap;html=1;backgroundOutline=1;" parent="1" vertex="1">
                    <mxGeometry x="330.13" y="455.25" width="251.87" height="37.5" as="geometry"/>
                </mxCell>
                <mxCell id="100" style="edgeStyle=none;html=1;" parent="1" source="94" edge="1">
                    <mxGeometry relative="1" as="geometry">
                        <mxPoint x="211" y="268.25" as="targetPoint"/>
                    </mxGeometry>
                </mxCell>
                <mxCell id="94" value="In thông báo qua Serial:&lt;br&gt;param := Thingspeak: Ready: False&quot;" style="shape=process;whiteSpace=wrap;html=1;backgroundOutline=1;" parent="1" vertex="1">
                    <mxGeometry x="332.21999999999997" y="249.5" width="249.19" height="37.5" as="geometry"/>
                </mxCell>
                <mxCell id="99" value="" style="edgeStyle=none;html=1;" parent="1" source="90" target="94" edge="1">
                    <mxGeometry relative="1" as="geometry"/>
                </mxCell>
                <mxCell id="104" value="" style="edgeStyle=none;html=1;" parent="1" source="90" target="91" edge="1">
                    <mxGeometry relative="1" as="geometry"/>
                </mxCell>
                <mxCell id="90" value="FirebaseReady&amp;nbsp;" style="rhombus;whiteSpace=wrap;html=1;" parent="1" vertex="1">
                    <mxGeometry x="393.72" y="333" width="126.19" height="78" as="geometry"/>
                </mxCell>
                <mxCell id="95" value="" style="edgeStyle=none;html=1;" parent="1" source="93" target="90" edge="1">
                    <mxGeometry relative="1" as="geometry"/>
                </mxCell>
                <mxCell id="93" value="Khởi tạo kết nối Firebase&lt;br&gt;FirebaseReady := return_value" style="shape=process;whiteSpace=wrap;html=1;backgroundOutline=1;" parent="1" vertex="1">
                    <mxGeometry x="100.13" y="347" width="220" height="50" as="geometry"/>
                </mxCell>
                <mxCell id="107" value="" style="edgeStyle=none;html=1;" parent="1" source="89" target="92" edge="1">
                    <mxGeometry relative="1" as="geometry"/>
                </mxCell>
                <mxCell id="89" value="ThingspeakReady&amp;nbsp;" style="rhombus;whiteSpace=wrap;html=1;" parent="1" vertex="1">
                    <mxGeometry x="653.36" y="430" width="127.28" height="88" as="geometry"/>
                </mxCell>
                <mxCell id="105" value="" style="edgeStyle=none;html=1;" parent="1" source="91" target="89" edge="1">
                    <mxGeometry relative="1" as="geometry"/>
                </mxCell>
                <mxCell id="91" value="Khởi tạo kết nối Thingspeak&lt;br&gt;ThingspeakReady := return_value" style="shape=process;whiteSpace=wrap;html=1;backgroundOutline=1;" parent="1" vertex="1">
                    <mxGeometry x="602" y="347" width="230" height="55" as="geometry"/>
                </mxCell>
                <mxCell id="106" value="False" style="text;html=1;strokeColor=none;fillColor=none;align=center;verticalAlign=middle;whiteSpace=wrap;rounded=0;" parent="1" vertex="1">
                    <mxGeometry x="447" y="300" width="60" height="30" as="geometry"/>
                </mxCell>
                <mxCell id="112" value="True" style="text;html=1;strokeColor=none;fillColor=none;align=center;verticalAlign=middle;whiteSpace=wrap;rounded=0;" parent="1" vertex="1">
                    <mxGeometry x="104.63" y="861" width="60" height="30" as="geometry"/>
                </mxCell>
                <mxCell id="114" value="kết thúc" style="ellipse;whiteSpace=wrap;html=1;" parent="1" vertex="1">
                    <mxGeometry x="9" y="661" width="80" height="50" as="geometry"/>
                </mxCell>
                <mxCell id="116" value="False" style="text;html=1;strokeColor=none;fillColor=none;align=center;verticalAlign=middle;whiteSpace=wrap;rounded=0;" parent="1" vertex="1">
                    <mxGeometry x="118.13" y="661" width="33" height="30" as="geometry"/>
                </mxCell>
                <mxCell id="117" value="True" style="text;html=1;strokeColor=none;fillColor=none;align=center;verticalAlign=middle;whiteSpace=wrap;rounded=0;" parent="1" vertex="1">
                    <mxGeometry x="528" y="344" width="60" height="30" as="geometry"/>
                </mxCell>
                <mxCell id="118" value="True" style="text;html=1;strokeColor=none;fillColor=none;align=center;verticalAlign=middle;whiteSpace=wrap;rounded=0;" parent="1" vertex="1">
                    <mxGeometry x="605.5" y="533" width="31" height="17" as="geometry"/>
                </mxCell>
                <mxCell id="120" value="True" style="text;html=1;strokeColor=none;fillColor=none;align=center;verticalAlign=middle;whiteSpace=wrap;rounded=0;" parent="1" vertex="1">
                    <mxGeometry x="681" y="652" width="31" height="17" as="geometry"/>
                </mxCell>
                <mxCell id="121" value="False" style="text;html=1;strokeColor=none;fillColor=none;align=center;verticalAlign=middle;whiteSpace=wrap;rounded=0;" parent="1" vertex="1">
                    <mxGeometry x="164.63" y="931" width="46" height="17" as="geometry"/>
                </mxCell>
            </root>
        </mxGraphModel>
    </diagram>
</mxfile>